<svg xmlns="http://www.w3.org/2000/svg" xmlns:xlink="http://www.w3.org/1999/xlink" width="160" height="40" viewBox="0 0 160 40"><svg width="160" height="20" id="deps" y="0"><linearGradient id="a" x2="0" y2="100%"><stop offset="0" stop-color="#bbb" stop-opacity=".1"></stop><stop offset="1" stop-opacity=".1"></stop></linearGradient><rect rx="3" width="160" height="20" fill="#555"></rect><rect rx="3" x="88" width="72" height="20" fill="#e05d44"></rect><path fill="#e05d44" d="M88 0h4v20h-4z"></path><rect rx="3" width="160" height="20" fill="url(#a)"></rect><g fill="#fff" text-anchor="middle" font-family="DejaVu Sans,Verdana,Geneva,sans-serif" font-size="11"><text x="45" y="15" fill="#010101" fill-opacity=".3">dependencies</text><text x="45" y="14">dependencies</text><text x="123" y="15" fill="#010101" fill-opacity=".3">out of date</text><text x="123" y="14">out of date</text></g></svg><svg width="88" height="20" id="uncss" y="20"><linearGradient id="b" x2="0" y2="100%"><stop offset="0" stop-color="#bbb" stop-opacity=".1"></stop><stop offset="1" stop-opacity=".1"></stop></linearGradient><clipPath id="a"><rect width="88" height="20" rx="3" fill="#fff"></rect></clipPath><g clip-path="url(#a)"><path fill="#555" d="M0 0h35v20H0z"></path><path fill="#fe7d37" d="M35 0h53v20H35z"></path><path fill="url(#b)" d="M0 0h88v20H0z"></path></g><g fill="#fff" text-anchor="middle" font-family="DejaVu Sans,Verdana,Geneva,sans-serif" font-size="11"><text x="17.5" y="15" fill="#010101" fill-opacity=".3">npm</text><text x="17.5" y="14">npm</text><text x="60.5" y="15" fill="#010101" fill-opacity=".3">v0.15.0</text><text x="60.5" y="14">v0.15.0</text></g></svg></svg>